<svg xmlns="http://www.w3.org/2000/svg" width="84" height="40" viewBox="0 0 84 40" fill="none"><path d="M54.5762 2.61928C54.7472 2.71026 54.8904 2.84607 54.9901 3.01217C55.0899 3.17826 55.1427 3.36838 55.1427 3.56215C55.1427 3.75592 55.0899 3.94604 54.9901 4.11214C54.8904 4.27823 54.7472 4.41404 54.5762 4.50502L50.0125 6.9867C49.2776 7.38672 48.375 6.86666 48.375 6.04418V1.08048C48.375 0.257645 49.2776 -0.262057 50.0125 0.137248L54.5762 2.61928Z" fill="#F79227"></path><path fill-rule="evenodd" clip-rule="evenodd" d="M48.6641 11.2214V30.3971C48.6641 31.6257 49.7107 32.2628 51.7585 32.2628C53.8062 32.2628 54.8528 31.6257 54.8528 30.3971V7.86206L48.8081 11.1491C48.7604 11.1751 48.7124 11.1991 48.6641 11.2214Z" fill="#71BF44"></path><path d="M24.5118 0.000244141H43.8063C44.9439 0.000244141 45.49 0.955866 45.49 2.8216C45.49 4.68734 44.9439 5.64296 43.8063 5.64296H37.481V30.4891C37.481 31.7633 36.3888 32.4004 34.1591 32.4004C31.9293 32.4004 30.8371 31.7633 30.8371 30.4891V5.64296H24.5118C23.3742 5.64296 22.8281 4.68734 22.8281 2.8216C22.8281 0.955866 23.3742 0.000244141 24.5118 0.000244141Z" fill="#117FC3"></path><path d="M10.3298 32.0363H1.86574C0.637081 32.0363 0 31.3537 0 29.9431V2.13902C0 0.728339 0.637081 0.000244141 1.86574 0.000244141H10.2388C13.4242 0.000244141 16.109 0.955867 18.2478 2.86711C20.3866 4.77835 21.4787 7.32667 21.4787 10.4666V21.6155C21.4787 24.7554 20.4321 27.2582 18.2933 29.1695C16.1545 31.0807 13.5152 32.0363 10.3298 32.0363ZM6.64384 26.3936H10.3298C11.695 26.3936 12.7871 25.9385 13.6062 25.0284C14.4253 24.1183 14.8349 22.8897 14.8349 21.297V10.7396C14.8349 9.14691 14.4253 7.91825 13.6062 7.00814C12.7871 6.09802 11.695 5.64296 10.3298 5.64296H6.64384V26.3936Z" fill="#117FC3"></path><path fill-rule="evenodd" clip-rule="evenodd" d="M68.4943 6.2726H72.5885C74.8911 6.2726 76.7577 8.13919 76.7577 10.4418V21.8895C76.7577 24.192 74.8911 26.0586 72.5885 26.0586H68.4942C66.1917 26.0586 64.3251 24.192 64.3251 21.8895V10.4418C64.3251 8.13919 66.1917 6.2726 68.4943 6.2726ZM58.0703 10.4418C58.0703 4.68477 62.7373 0.0178223 68.4943 0.0178223H72.5885C78.3455 0.0178223 83.0124 4.68478 83.0124 10.4418V21.8895C83.0124 25.3439 81.3321 28.4058 78.7442 30.3025C81.1842 31.5627 82.3844 33.7335 82.3844 36.8147V38.0889C82.3844 39.363 81.2923 40.0001 79.0625 40.0001C76.8327 40.0001 75.7406 39.363 75.7406 38.0889L75.6496 37.1332C75.6496 35.7681 75.2855 34.6304 74.5574 33.7658C73.8294 32.9012 72.7827 32.4461 71.4631 32.4006H71.1445C70.5968 32.4006 70.0642 32.3716 69.547 32.3134H68.4942C62.7373 32.3134 58.0703 27.6464 58.0703 21.8895V10.4418Z" fill="#71BF44"></path><path d="M65.9883 19.0773C65.9883 18.3905 66.5451 17.8337 67.2319 17.8337C67.9187 17.8337 68.4755 18.3905 68.4755 19.0773V22.7662C68.4755 23.453 67.9187 24.0098 67.2319 24.0098C66.5451 24.0098 65.9883 23.453 65.9883 22.7662V19.0773Z" fill="#F79227"></path><path d="M75.1289 15.7275C75.1289 15.0407 74.5721 14.4839 73.8853 14.4839C73.1985 14.4839 72.6417 15.0407 72.6417 15.7275V22.7662C72.6417 23.4531 73.1985 24.0098 73.8853 24.0098C74.5721 24.0098 75.1289 23.4531 75.1289 22.7662V15.7275Z" fill="#F79227"></path><path d="M71.7852 11.5292C71.7852 10.8424 71.2284 10.2856 70.5416 10.2856C69.8547 10.2856 69.298 10.8424 69.298 11.5292V22.7662C69.298 23.4531 69.8547 24.0098 70.5416 24.0098C71.2284 24.0098 71.7852 23.4531 71.7852 22.7662V11.5292Z" fill="#F79227"></path></svg>