<svg width="155" height="24" viewBox="0 0 155 24" fill="none" xmlns="http://www.w3.org/2000/svg">
<g clip-path="url(#clip0_0_802)">
<path d="M33.3808 0.16658H29.4548V7.66277H25.7771V15.9391H22.3434V7.66277H18.6656V0.16658H14.7396V7.66277H11.0659V15.9391H7.62815V7.66277H3.92596V0.16658H0V7.88624H3.7022V16.1625H7.38405V23.6628H11.31V16.1625H14.9878V7.88624H18.4174V16.1625H22.0993V23.6628H26.0252V16.1625H29.703V7.88624H33.3808V0.16658Z" fill="url(#paint0_linear_0_802)"/>
<path d="M74.4874 0.199085L67.7055 23.6628H63.3767L57.738 4.28644L52.0301 23.6628H47.7665L40.9886 0.199085H44.8495L50.118 19.3723L55.4882 0.199085H60.1546L65.594 19.6079L70.7933 0.199085H74.4874Z" fill="black"/>
<path d="M90.7079 16.0569H78.2221C78.3889 19.4088 80.7079 21.1844 83.4255 21.1844C85.5411 21.1844 87.2172 20.1117 88.2262 18.4337L90.476 19.9411C89.1009 22.3545 86.6151 23.9959 83.3605 23.9959C78.6615 23.9959 74.9024 20.6115 74.9024 15.2809C74.9024 9.95023 78.3605 6.39919 83.1611 6.39919C88.3645 6.39919 91.3507 10.8238 90.712 16.0528L90.7079 16.0569ZM78.3238 13.4769H87.5549C87.319 10.8603 85.6103 9.08482 83.0919 9.08482C80.5736 9.08482 78.5924 10.8278 78.3238 13.4769Z" fill="black"/>
<path d="M110.525 20.514V23.6668H95.0854V0.199085H98.6778V20.514H110.525Z" fill="black"/>
<path d="M113.303 0H116.961V3.62011H113.303V0ZM113.438 6.80549H116.863V23.6668H113.438V6.80549Z" fill="black"/>
<path d="M136.001 13.0056V23.6668H132.575V13.4444C132.575 10.8969 131.2 9.28796 128.918 9.28796C126.367 9.28796 124.251 11.3316 124.251 15.5571V23.6709H120.826V6.80549H124.251V9.62113C125.427 7.47588 127.372 6.40325 129.788 6.40325C133.515 6.40325 135.997 8.91823 135.997 13.0056H136.001Z" fill="black"/>
<path d="M146.139 15.5206L142.95 18.8725V23.6668H139.524V0.199085H142.95V14.5455L150.199 6.80142H154.43L148.454 13.1031L155 23.6628H151.037L146.135 15.5165L146.139 15.5206Z" fill="black"/>
</g>
<defs>
<linearGradient id="paint0_linear_0_802" x1="0" y1="11.9126" x2="33.3808" y2="11.9126" gradientUnits="userSpaceOnUse">
<stop stop-color="#FF8D6D"/>
<stop offset="1" stop-color="#5C88DA"/>
</linearGradient>
<clipPath id="clip0_0_802">
<rect width="155" height="24" fill="white"/>
</clipPath>
</defs>
</svg>
